<?xml version="1.0" encoding="utf-8"?>
<!-- Generator: Adobe Illustrator 22.0.1, SVG Export Plug-In . SVG Version: 6.00 Build 0)  -->
<svg version="1.1" id="Layer_1" xmlns="http://www.w3.org/2000/svg" xmlns:xlink="http://www.w3.org/1999/xlink" x="0px" y="0px"
	 viewBox="0 0 200 200" style="enable-background:new 0 0 200 200;" xml:space="preserve">
<style type="text/css">
	.st0{fill:#2D3082;}
	.st1{fill:#1E4388;}
</style>
<g>
	<path class="st0" d="M99.3,95.5v48.8H45.2V90.3l48.9,0v-5.2H40v64.5h64.5V95.5H99.3z M99.3,50.4v39.9h29.5v-5.2h-24.3V55.6H134
		v24.3h5.2V50.4H99.3z M134,85.1v15.6h5.2V90.4h15.6v15.6h-10.4v5.2H160v-26H134z M120,105.9v19.2h19.2v-19.2H120z"/>
	<g>
		<g>
			<path class="st1" d="M146.5,56.5h-0.6l-1-1.8h-1v1.8h-0.5v-4.3h1.5c1.1,0,1.4,0.6,1.4,1.2c0,0.6-0.3,1-0.8,1.2L146.5,56.5z
				 M144.8,54.3c0.6,0,0.9-0.2,0.9-0.8c0-0.6-0.4-0.7-1-0.7H144v1.6H144.8z"/>
		</g>
		<path class="st1" d="M144.9,58.3c-2.1,0-3.9-1.7-3.9-3.9c0-2.1,1.7-3.9,3.9-3.9s3.9,1.7,3.9,3.9C148.8,56.5,147,58.3,144.9,58.3z
			 M144.9,50.9c-1.9,0-3.5,1.6-3.5,3.5c0,1.9,1.6,3.5,3.5,3.5c1.9,0,3.5-1.6,3.5-3.5C148.3,52.5,146.8,50.9,144.9,50.9z"/>
	</g>
</g>
</svg>
